<svg id="visual" viewBox="0 0 960 540" width="960" height="540" xmlns="http://www.w3.org/2000/svg" xmlns:xlink="http://www.w3.org/1999/xlink" version="1.1"><path d="M0 419L69 424L137 437L206 430L274 414L343 411L411 440L480 410L549 431L617 438L686 433L754 438L823 424L891 430L960 415L960 541L891 541L823 541L754 541L686 541L617 541L549 541L480 541L411 541L343 541L274 541L206 541L137 541L69 541L0 541Z" fill="#8db4ad"></path><path d="M0 452L69 446L137 454L206 430L274 434L343 437L411 433L480 451L549 455L617 428L686 452L754 452L823 441L891 433L960 433L960 541L891 541L823 541L754 541L686 541L617 541L549 541L480 541L411 541L343 541L274 541L206 541L137 541L69 541L0 541Z" fill="#a3bfb2"></path><path d="M0 473L69 467L137 456L206 463L274 471L343 468L411 462L480 474L549 462L617 475L686 471L754 452L823 468L891 468L960 461L960 541L891 541L823 541L754 541L686 541L617 541L549 541L480 541L411 541L343 541L274 541L206 541L137 541L69 541L0 541Z" fill="#b8cab9"></path><path d="M0 484L69 473L137 466L206 468L274 491L343 475L411 482L480 471L549 482L617 477L686 470L754 471L823 478L891 467L960 479L960 541L891 541L823 541L754 541L686 541L617 541L549 541L480 541L411 541L343 541L274 541L206 541L137 541L69 541L0 541Z" fill="#cdd4c4"></path><path d="M0 495L69 488L137 496L206 501L274 507L343 500L411 494L480 505L549 499L617 494L686 490L754 488L823 494L891 504L960 504L960 541L891 541L823 541L754 541L686 541L617 541L549 541L480 541L411 541L343 541L274 541L206 541L137 541L69 541L0 541Z" fill="#e0dfd1"></path><path d="M0 520L69 508L137 523L206 513L274 521L343 517L411 515L480 520L549 510L617 507L686 512L754 513L823 519L891 510L960 507L960 541L891 541L823 541L754 541L686 541L617 541L549 541L480 541L411 541L343 541L274 541L206 541L137 541L69 541L0 541Z" fill="#f1ebe1"></path></svg>